<svg xmlns="http://www.w3.org/2000/svg" data-name="S_Sync_18_N@2x" height="36" id="S_Sync_18_N_2x" viewBox="0 0 36 36" width="36">
  <defs>
    <style>
      .fill {
        fill: #6e6e6e;
      }

      
    </style>
  </defs>
  <path class="fill" d="M35.811,23.508l-8.59-8.325A.72.72,0,0,0,26,15.7V20H15a1,1,0,0,0-1,1v6a1,1,0,0,0,1,1H26v4.3a.72.72,0,0,0,1.221.517l8.59-8.325a.735.735,0,0,0,0-.984Z" />
  <path class="fill" d="M.189,11.508l8.59-8.325A.72.72,0,0,1,10,3.7V8H21a1,1,0,0,1,1,1v6a1,1,0,0,1-1,1H10v4.3a.72.72,0,0,1-1.221.517L.189,12.492a.735.735,0,0,1,0-.984Z" />
  </svg>